<svg preserveAspectRatio="none" width="100%" height="100%" overflow="visible" style="display: block;" viewBox="0 0 12.4295 10.7836" fill="none" xmlns="http://www.w3.org/2000/svg">
<g id="Banner Icon">
<path id="Icon" d="M2.62366 10.7836C2.16834 10.7836 1.78177 10.6244 1.46393 10.3059C1.14609 9.98745 0.987166 9.60075 0.987166 9.1458H0V3.05448C0 2.75982 0.102082 2.51041 0.306247 2.30625C0.510412 2.10208 0.759823 2 1.05448 2H8.99677V4.22115H10.5448L12.4295 6.7452V9.1458H11.375C11.375 9.60075 11.2156 9.98745 10.8969 10.3059C10.5782 10.6244 10.1912 10.7836 9.73585 10.7836C9.28053 10.7836 8.89395 10.6244 8.57611 10.3059C8.25827 9.98745 8.09935 9.60075 8.09935 9.1458H4.26279C4.26279 9.602 4.10343 9.98901 3.78471 10.3069C3.46599 10.6247 3.07897 10.7836 2.62366 10.7836V10.7836M2.62498 9.90864C2.83887 9.90864 3.01948 9.83497 3.16681 9.68764C3.31415 9.54031 3.38781 9.35969 3.38781 9.1458C3.38781 8.93191 3.31415 8.7513 3.16681 8.60397C3.01948 8.45663 2.83887 8.38297 2.62498 8.38297C2.41109 8.38297 2.23047 8.45663 2.08314 8.60397C1.93581 8.7513 1.86214 8.93191 1.86214 9.1458C1.86214 9.35969 1.93581 9.54031 2.08314 9.68764C2.23047 9.83497 2.41109 9.90864 2.62498 9.90864V9.90864M0.874979 8.27082H1.29677C1.42091 8.05469 1.60021 7.87351 1.83467 7.7273C2.06913 7.58109 2.33256 7.50799 2.62498 7.50799C2.90992 7.50799 3.17148 7.58016 3.40968 7.7245C3.64788 7.86884 3.82904 8.05095 3.95319 8.27082H8.12179V2.87498H1.05448C1.0096 2.87498 0.968468 2.89368 0.931072 2.93107C0.893677 2.96847 0.874979 3.0096 0.874979 3.05448V8.27082V8.27082M9.73717 9.90864C9.95106 9.90864 10.1317 9.83497 10.279 9.68764C10.4263 9.54031 10.5 9.35969 10.5 9.1458C10.5 8.93191 10.4263 8.7513 10.279 8.60397C10.1317 8.45663 9.95106 8.38297 9.73717 8.38297C9.52327 8.38297 9.34266 8.45663 9.19533 8.60397C9.048 8.7513 8.97433 8.93191 8.97433 9.1458C8.97433 9.35969 9.048 9.54031 9.19533 9.68764C9.34266 9.83497 9.52327 9.90864 9.73717 9.90864V9.90864M8.99677 7.10416H11.6106L10.0961 5.09612H8.99677V7.10416V7.10416M4.49838 5.5729V5.5729V5.5729V5.5729V5.5729V5.5729V5.5729V5.5729V5.5729V5.5729V5.5729V5.5729V5.5729" fill="var(--fill-0, #564336)"/>
</g>
</svg>
