<svg preserveAspectRatio="none" width="100%" height="100%" overflow="visible" style="display: block;" viewBox="0 0 14.2222 14.2222" fill="none" xmlns="http://www.w3.org/2000/svg">
<path id="Icon" d="M13.116 14.2222L8.13827 9.24444C7.74321 9.56049 7.28889 9.8107 6.77531 9.99506C6.26173 10.1794 5.71523 10.2716 5.1358 10.2716C3.70041 10.2716 2.4856 9.77449 1.49136 8.78025C0.497119 7.78601 0 6.57119 0 5.1358C0 3.70041 0.497119 2.4856 1.49136 1.49136C2.4856 0.497119 3.70041 0 5.1358 0C6.57119 0 7.78601 0.497119 8.78025 1.49136C9.77449 2.4856 10.2716 3.70041 10.2716 5.1358C10.2716 5.71523 10.1794 6.26173 9.99506 6.77531C9.8107 7.28889 9.56049 7.74321 9.24444 8.13827L14.2222 13.116L13.116 14.2222V14.2222M5.1358 8.69136C6.12346 8.69136 6.96296 8.34568 7.65432 7.65432C8.34568 6.96296 8.69136 6.12346 8.69136 5.1358C8.69136 4.14815 8.34568 3.30864 7.65432 2.61728C6.96296 1.92593 6.12346 1.58025 5.1358 1.58025C4.14815 1.58025 3.30864 1.92593 2.61728 2.61728C1.92593 3.30864 1.58025 4.14815 1.58025 5.1358C1.58025 6.12346 1.92593 6.96296 2.61728 7.65432C3.30864 8.34568 4.14815 8.69136 5.1358 8.69136V8.69136" fill="var(--fill-0, #30312F)"/>
</svg>
