<svg preserveAspectRatio="none" width="100%" height="100%" overflow="visible" style="display: block;" viewBox="0 0 20 20" fill="none" xmlns="http://www.w3.org/2000/svg">
<g id="Button Icon">
<path id="Icon" d="M4 20C3.45 20 2.97917 19.8042 2.5875 19.4125C2.19583 19.0208 2 18.55 2 18V6C2 5.45 2.19583 4.97917 2.5875 4.5875C2.97917 4.19583 3.45 4 4 4H6V4C6 2.9 6.39167 1.95833 7.175 1.175C7.95833 0.391667 8.9 0 10 0C11.1 0 12.0417 0.391667 12.825 1.175C13.6083 1.95833 14 2.9 14 4V4H16C16.55 4 17.0208 4.19583 17.4125 4.5875C17.8042 4.97917 18 5.45 18 6V18C18 18.55 17.8042 19.0208 17.4125 19.4125C17.0208 19.8042 16.55 20 16 20H4V20M8 4H12V4C12 3.45 11.8042 2.97917 11.4125 2.5875C11.0208 2.19583 10.55 2 10 2C9.45 2 8.97917 2.19583 8.5875 2.5875C8.19583 2.97917 8 3.45 8 4V4V4M13 9C13.2833 9 13.5208 8.90417 13.7125 8.7125C13.9042 8.52083 14 8.28333 14 8V6H12V8C12 8.28333 12.0958 8.52083 12.2875 8.7125C12.4792 8.90417 12.7167 9 13 9V9M7 9C7.28333 9 7.52083 8.90417 7.7125 8.7125C7.90417 8.52083 8 8.28333 8 8V6H6V8C6 8.28333 6.09583 8.52083 6.2875 8.7125C6.47917 8.90417 6.71667 9 7 9V9" fill="var(--fill-0, #FCEEE5)"/>
</g>
</svg>
