<svg preserveAspectRatio="none" width="100%" height="100%" overflow="visible" style="display: block;" viewBox="0 0 12.5925 14.074" fill="none" xmlns="http://www.w3.org/2000/svg">
<path id="Icon" d="M10.5966 14.074C10.0421 14.074 9.57143 13.8801 9.18445 13.4924C8.79746 13.1046 8.60397 12.6337 8.60397 12.0797C8.60397 12.0057 8.62961 11.8257 8.68089 11.5398L3.41308 8.4387C3.23455 8.62389 3.02245 8.76895 2.77679 8.87389C2.53113 8.97883 2.26792 9.03129 1.98716 9.03129C1.43517 9.03129 0.965982 8.83662 0.579589 8.44725C0.193196 8.05789 0 7.58781 0 7.03701C0 6.48621 0.193196 6.01613 0.579589 5.62677C0.965982 5.2374 1.43517 5.04272 1.98716 5.04272C2.26792 5.04272 2.53113 5.09519 2.77679 5.20013C3.02245 5.30507 3.23455 5.45013 3.41308 5.63532L8.68089 2.5413C8.65145 2.45013 8.63127 2.36086 8.62035 2.27349C8.60943 2.18612 8.60397 2.09305 8.60397 1.99429C8.60397 1.44032 8.79802 0.969445 9.18612 0.581667C9.57423 0.193889 10.0455 0 10.5999 0C11.1544 0 11.6251 0.194052 12.0121 0.582156C12.399 0.970259 12.5925 1.44153 12.5925 1.99596C12.5925 2.5504 12.3986 3.0211 12.0109 3.40809C11.6231 3.79508 11.1522 3.98857 10.5983 3.98857C10.3162 3.98857 10.0539 3.93491 9.81122 3.8276C9.56858 3.72029 9.35799 3.57404 9.17946 3.38886L3.91165 6.49C3.94109 6.58117 3.96127 6.67044 3.97219 6.75781C3.98311 6.84518 3.98857 6.93824 3.98857 7.03701C3.98857 7.13578 3.98311 7.22884 3.97219 7.31621C3.96127 7.40358 3.94109 7.49285 3.91165 7.58402L9.17946 10.6852C9.35799 10.5 9.56858 10.3537 9.81122 10.2464C10.0539 10.1391 10.3162 10.0854 10.5983 10.0854C11.1522 10.0854 11.6231 10.2795 12.0109 10.6676C12.3986 11.0557 12.5925 11.527 12.5925 12.0814C12.5925 12.6358 12.3985 13.1066 12.0104 13.4935C11.6223 13.8805 11.151 14.074 10.5966 14.074ZM10.6008 12.9629C10.8517 12.9629 11.0612 12.8781 11.2293 12.7083C11.3974 12.5385 11.4815 12.3282 11.4815 12.0772C11.4815 11.8263 11.3971 11.6168 11.2283 11.4487C11.0595 11.2806 10.8503 11.1965 10.6008 11.1965C10.3512 11.1965 10.1412 11.2809 9.97075 11.4497C9.80029 11.6185 9.71505 11.8277 9.71505 12.0772C9.71505 12.3268 9.79993 12.5368 9.96969 12.7072C10.1394 12.8777 10.3498 12.9629 10.6008 12.9629ZM1.98716 7.92021C2.23942 7.92021 2.45087 7.83498 2.62152 7.66451C2.79216 7.49404 2.87749 7.28488 2.87749 7.03701C2.87749 6.78914 2.79216 6.57998 2.62152 6.40951C2.45087 6.23904 2.23942 6.15381 1.98716 6.15381C1.73894 6.15381 1.53087 6.23904 1.36296 6.40951C1.19504 6.57998 1.11108 6.78914 1.11108 7.03701C1.11108 7.28488 1.19504 7.49404 1.36296 7.66451C1.53087 7.83498 1.73894 7.92021 1.98716 7.92021ZM10.5983 2.87749C10.8461 2.87749 11.0553 2.79285 11.2258 2.62357C11.3962 2.45429 11.4815 2.24453 11.4815 1.99429C11.4815 1.74405 11.3974 1.53428 11.2293 1.365C11.0612 1.19572 10.8517 1.11108 10.6008 1.11108C10.3498 1.11108 10.1394 1.19548 9.96969 1.36429C9.79993 1.53309 9.71505 1.74225 9.71505 1.99179C9.71505 2.24132 9.80029 2.45132 9.97075 2.62179C10.1412 2.79225 10.3504 2.87749 10.5983 2.87749Z" fill="var(--fill-0, #30312F)"/>
</svg>
