<svg preserveAspectRatio="none" width="100%" height="100%" overflow="visible" style="display: block;" viewBox="0 0 14 12.6567" fill="none" xmlns="http://www.w3.org/2000/svg">
<path id="Icon" d="M7.00002 12.6567L6.18668 11.9255C4.96521 10.8174 3.95512 9.86521 3.15639 9.06885C2.35767 8.27249 1.72474 7.56374 1.2576 6.94262C0.790456 6.3215 0.464071 5.75493 0.278443 5.24292C0.0928143 4.73091 0 4.21134 0 3.68421C0 2.63846 0.352598 1.76299 1.05779 1.05779C1.76299 0.352598 2.63846 0 3.68421 0C4.32753 0 4.93543 0.150441 5.50791 0.451322C6.08038 0.752204 6.57775 1.18369 7.00002 1.74578C7.42229 1.18369 7.91967 0.752204 8.49214 0.451322C9.06461 0.150441 9.67251 0 10.3158 0C11.3616 0 12.2371 0.352598 12.9423 1.05779C13.6474 1.76299 14 2.63846 14 3.68421C14 4.21134 13.9072 4.73091 13.7216 5.24292C13.536 5.75493 13.2096 6.3215 12.7424 6.94262C12.2753 7.56374 11.6436 8.27249 10.8472 9.06885C10.0508 9.86521 9.03956 10.8174 7.81337 11.9255L7.00002 12.6567ZM7.00002 11.1632C8.17898 10.1023 9.14916 9.19309 9.91057 8.43546C10.672 7.67783 11.2737 7.01962 11.7158 6.46085C12.158 5.90207 12.465 5.40588 12.6369 4.97227C12.8088 4.53867 12.8948 4.10931 12.8948 3.68421C12.8948 2.94736 12.6492 2.33332 12.158 1.84209C11.6667 1.35086 11.0527 1.10524 10.3158 1.10524C9.73392 1.10524 9.19616 1.27033 8.70257 1.60049C8.20897 1.93066 7.81811 2.39001 7.52997 2.97855H6.47007C6.17721 2.38528 5.78517 1.92475 5.29394 1.59695C4.80271 1.26915 4.26613 1.10524 3.68421 1.10524C2.95209 1.10524 2.33923 1.35086 1.84563 1.84209C1.35204 2.33332 1.10524 2.94736 1.10524 3.68421C1.10524 4.10931 1.19121 4.53867 1.36314 4.97227C1.53507 5.40588 1.84209 5.90207 2.2842 6.46085C2.72631 7.01962 3.32807 7.67665 4.08948 8.43192C4.85089 9.18718 5.82107 10.0976 7.00002 11.1632Z" fill="var(--fill-0, #30312F)"/>
</svg>
