<svg preserveAspectRatio="none" width="100%" height="100%" overflow="visible" style="display: block;" viewBox="0 0 24 24" fill="none" xmlns="http://www.w3.org/2000/svg">
<g id="NavBar Button Icon">
<path id="Icon" d="M12 10C10.9 10 9.95833 9.60833 9.175 8.825C8.39167 8.04167 8 7.1 8 6C8 4.9 8.39167 3.95833 9.175 3.175C9.95833 2.39167 10.9 2 12 2C13.1 2 14.0417 2.39167 14.825 3.175C15.6083 3.95833 16 4.9 16 6C16 7.1 15.6083 8.04167 14.825 8.825C14.0417 9.60833 13.1 10 12 10V10M4 18V15.2C4 14.6333 4.14583 14.1125 4.4375 13.6375C4.72917 13.1625 5.11667 12.8 5.6 12.55C6.63333 12.0333 7.68333 11.6458 8.75 11.3875C9.81667 11.1292 10.9 11 12 11C13.1 11 14.1833 11.1292 15.25 11.3875C16.3167 11.6458 17.3667 12.0333 18.4 12.55C18.8833 12.8 19.2708 13.1625 19.5625 13.6375C19.8542 14.1125 20 14.6333 20 15.2V18H4V18M6 16H18V15.2C18 15.0167 17.9542 14.85 17.8625 14.7C17.7708 14.55 17.65 14.4333 17.5 14.35C16.6 13.9 15.6917 13.5625 14.775 13.3375C13.8583 13.1125 12.9333 13 12 13C11.0667 13 10.1417 13.1125 9.225 13.3375C8.30833 13.5625 7.4 13.9 6.5 14.35C6.35 14.4333 6.22917 14.55 6.1375 14.7C6.04583 14.85 6 15.0167 6 15.2V16V16M12 8C12.55 8 13.0208 7.80417 13.4125 7.4125C13.8042 7.02083 14 6.55 14 6C14 5.45 13.8042 4.97917 13.4125 4.5875C13.0208 4.19583 12.55 4 12 4C11.45 4 10.9792 4.19583 10.5875 4.5875C10.1958 4.97917 10 5.45 10 6C10 6.55 10.1958 7.02083 10.5875 7.4125C10.9792 7.80417 11.45 8 12 8V8M12 6V6V6V6V6V6V6V6V6V6M12 16V16V16V16V16V16V16V16V16V16V16V16V16" fill="var(--fill-0, #5E5F5D)"/>
</g>
</svg>
