<svg preserveAspectRatio="none" width="100%" height="100%" overflow="visible" style="display: block;" viewBox="0 0 24 25" fill="none" xmlns="http://www.w3.org/2000/svg">
<g id="NavBar Button Icon">
<path id="Icon" d="M19 8L17.75 5.25L15 4L17.75 2.75L19 0L20.25 2.75L23 4L20.25 5.25L19 8V8M19 22L17.75 19.25L15 18L17.75 16.75L19 14L20.25 16.75L23 18L20.25 19.25L19 22V22M9 19L6.5 13.5L1 11L6.5 8.5L9 3L11.5 8.5L17 11L11.5 13.5L9 19V19M9 14.15L10 12L12.15 11L10 10L9 7.85L8 10L5.85 11L8 12L9 14.15V14.15M9 11V11V11V11V11V11V11V11V11V11" fill="var(--fill-0, #5E5F5D)"/>
</g>
</svg>
