<svg preserveAspectRatio="none" width="100%" height="100%" overflow="visible" style="display: block;" viewBox="0 0 24 24" fill="none" xmlns="http://www.w3.org/2000/svg">
<g id="NavBar Button Icon">
<path id="Icon" d="M6.5 18.994C5.75 18.994 5.00833 18.8107 4.275 18.444C3.54167 18.0773 2.95 17.594 2.5 16.994C2.93333 16.994 3.375 16.8232 3.825 16.4815C4.275 16.1398 4.5 15.644 4.5 14.994C4.5 14.1607 4.79167 13.4523 5.375 12.869C5.95833 12.2857 6.66667 11.994 7.5 11.994C8.33333 11.994 9.04167 12.2857 9.625 12.869C10.2083 13.4523 10.5 14.1607 10.5 14.994C10.5 16.094 10.1083 17.0357 9.325 17.819C8.54167 18.6023 7.6 18.994 6.5 18.994V18.994M6.5 16.994C7.05 16.994 7.52083 16.7982 7.9125 16.4065C8.30417 16.0148 8.5 15.544 8.5 14.994C8.5 14.7107 8.40417 14.4732 8.2125 14.2815C8.02083 14.0898 7.78333 13.994 7.5 13.994C7.21667 13.994 6.97917 14.0898 6.7875 14.2815C6.59583 14.4732 6.5 14.7107 6.5 14.994C6.5 15.3773 6.45417 15.7273 6.3625 16.044C6.27083 16.3607 6.15 16.6607 6 16.944C6.08333 16.9773 6.16667 16.994 6.25 16.994C6.33333 16.994 6.41667 16.994 6.5 16.994V16.994M12.25 12.994L9.5 10.244L18.45 1.294C18.6333 1.11067 18.8625 1.01483 19.1375 1.0065C19.4125 0.998166 19.65 1.094 19.85 1.294L21.2 2.644C21.4 2.844 21.5 3.07733 21.5 3.344C21.5 3.61067 21.4 3.844 21.2 4.044L12.25 12.994V12.994M7.5 14.994V14.994V14.994V14.994V14.994V14.994V14.994V14.994V14.994V14.994V14.994V14.994" fill="var(--fill-0, #5E5F5D)"/>
</g>
</svg>
