<svg preserveAspectRatio="none" width="100%" height="100%" overflow="visible" style="display: block;" viewBox="0 0 115 25.3333" fill="none" xmlns="http://www.w3.org/2000/svg">
<g id="Value Icon">
<path id="Icon" d="M2.66667 14.6667C2.66667 15.8222 2.9 16.9167 3.36667 17.95C3.83333 18.9833 4.5 19.8889 5.36667 20.6667C5.34444 20.5556 5.33333 20.4556 5.33333 20.3667C5.33333 20.2778 5.33333 20.1778 5.33333 20.0667C5.33333 19.3556 5.46667 18.6889 5.73333 18.0667C6 17.4444 6.38889 16.8778 6.9 16.3667L10.6667 12.6667L14.4333 16.3667C14.9444 16.8778 15.3333 17.4444 15.6 18.0667C15.8667 18.6889 16 19.3556 16 20.0667C16 20.1778 16 20.2778 16 20.3667C16 20.4556 15.9889 20.5556 15.9667 20.6667C16.8333 19.8889 17.5 18.9833 17.9667 17.95C18.4333 16.9167 18.6667 15.8222 18.6667 14.6667C18.6667 13.5556 18.4611 12.5056 18.05 11.5167C17.6389 10.5278 17.0444 9.64444 16.2667 8.86667V8.86667C15.8222 9.15556 15.3556 9.37222 14.8667 9.51667C14.3778 9.66111 13.8778 9.73333 13.3667 9.73333C11.9889 9.73333 10.7944 9.27778 9.78333 8.36667C8.77222 7.45556 8.18889 6.33333 8.03333 5V5C7.16667 5.73333 6.4 6.49444 5.73333 7.28333C5.06667 8.07222 4.50556 8.87222 4.05 9.68333C3.59444 10.4944 3.25 11.3222 3.01667 12.1667C2.78333 13.0111 2.66667 13.8444 2.66667 14.6667V14.6667M10.6667 16.4L8.76667 18.2667C8.52222 18.5111 8.33333 18.7889 8.2 19.1C8.06667 19.4111 8 19.7333 8 20.0667C8 20.7778 8.26111 21.3889 8.78333 21.9C9.30556 22.4111 9.93333 22.6667 10.6667 22.6667C11.4 22.6667 12.0278 22.4111 12.55 21.9C13.0722 21.3889 13.3333 20.7778 13.3333 20.0667C13.3333 19.7111 13.2667 19.3833 13.1333 19.0833C13 18.7833 12.8111 18.5111 12.5667 18.2667L10.6667 16.4V16.4M10.6667 0V4.4C10.6667 5.15556 10.9278 5.78889 11.45 6.3C11.9722 6.81111 12.6111 7.06667 13.3667 7.06667C13.7667 7.06667 14.1389 6.98333 14.4833 6.81667C14.8278 6.65 15.1333 6.4 15.4 6.06667L16 5.33333C17.6444 6.26667 18.9444 7.56667 19.9 9.23333C20.8556 10.9 21.3333 12.7111 21.3333 14.6667C21.3333 17.6444 20.3 20.1667 18.2333 22.2333C16.1667 24.3 13.6444 25.3333 10.6667 25.3333C7.68889 25.3333 5.16667 24.3 3.1 22.2333C1.03333 20.1667 0 17.6444 0 14.6667C0 11.8 0.961111 9.07778 2.88333 6.5C4.80556 3.92222 7.4 1.75556 10.6667 0V0" fill="var(--fill-0, #564336)"/>
</g>
</svg>
